:SAMPLES-PER-SECOND 30
:FULLY-SPECIFIED
:DEGREES
335
root  -75.0941 40.8905 -4.86499 11.0679 82.8404 13.0638
RightUpLeg  -17.4643 -11.759 -7.73137
RightLeg  40.4127 -5.9225 -5.66363
RightFoot  0.916347 -0.315857 2.98713
RightToes  -1.33073e-015 0 -3.6325e-017
Spine  11.8709 1.42718 -0.764181
Spine1  3.12849 1.77812 -2.37643
HEad  10.6618 3.25391 0.139548
LeftShoulder1  2.95499 -5.81439 -25.4799
LeftArm  -33.6423 20.0425 -13.2277
LeftForeArm  42.6917 -38.2314 -6.21484
LeftHand  -0.244104 0.0205437 5.32207
RightShoulder  2.15954 4.57908 20.343
RightArm  -9.3503 -6.04229 13.1844
RightForeArm  2.74962 26.8971 5.64556
RightHand  -2.68186 8.19254 -22.9431
LeftUpLeg  2.39143 7.22444 -1.47898
LeftLeg  11.2469 24.3053 -2.10365
LeftFoot  -12.8379 0.0639424 -1.00431
LeftToes  -7.82198e-011 2.46994e-011 -7.94165e-012
336
root  -74.7648 40.8747 -4.9833 7.48846 82.6969 9.48352
RightUpLeg  -19.818 -12.9495 -5.99087
RightLeg  39.1379 -2.56078 -2.53277
RightFoot  0.684332 -0.553641 5.2999
RightToes  -1.33073e-015 0 -3.6325e-017
Spine  12.1351 1.07846 -0.480877
Spine1  3.96372 1.45517 -2.393
HEad  10.8291 3.47104 -0.153193
LeftShoulder1  3.91714 -7.17772 -30.5766
LeftArm  -32.5953 19.8264 -14.5177
LeftForeArm  42.8514 -36.3599 -5.7193
LeftHand  -0.244104 0.0205437 5.32207
RightShoulder  2.82795 5.69449 24.5923
RightArm  -6.10053 -5.68904 15.0554
RightForeArm  5.02109 25.7913 5.26198
RightHand  -2.11488 6.48085 -20.7516
LeftUpLeg  2.95619 7.0844 -1.24161
LeftLeg  11.2487 24.6532 -2.09012
LeftFoot  -13.2646 0.0618149 -1.05028
LeftToes  -7.82198e-011 2.46994e-011 -7.94165e-012
337
root  -74.3599 40.8673 -5.08401 3.60199 82.8039 5.3786
RightUpLeg  -21.382 -14.6979 -3.77282
RightLeg  34.8363 -1.33552 -1.22208
RightFoot  0.564986 -0.787293 7.57333
RightToes  -1.33073e-015 0 -3.6325e-017
Spine  12.2701 0.765884 -0.0975344
Spine1  4.57521 1.13906 -2.17423
HEad  10.9768 3.41636 -0.361728
LeftShoulder1  5.10004 -8.66895 -35.7892
LeftArm  -30.1239 18.6576 -15.6778
LeftForeArm  41.6322 -32.1541 -4.75608
LeftHand  -0.244104 0.0205437 5.32207
RightShoulder  3.66567 6.87758 29.3232
RightArm  -2.94015 -5.78481 16.2851
RightForeArm  6.37582 23.4167 4.73989
RightHand  -1.56551 4.76714 -18.0486
LeftUpLeg  3.52278 6.81437 -0.941554
LeftLeg  10.9638 24.8075 -2.10354
LeftFoot  -13.7526 0.0533992 -1.38054
LeftToes  -7.82198e-011 2.46994e-011 -7.94165e-012
338
root  -73.8876 40.8464 -5.16068 1.1676 82.9843 2.57867
RightUpLeg  -22.5026 -16.818 -1.32946
RightLeg  28.7153 -2.71462 -1.82487
RightFoot  0.585647 -0.788158 7.57001
RightToes  -1.33073e-015 0 -3.6325e-017
Spine  12.363 0.584263 0.00548111
Spine1  4.86628 0.864319 -1.61627
HEad  11.0567 3.005 -0.498858
LeftShoulder1  6.32553 -10.0757 -40.3124
LeftArm  -25.9804 17.1246 -17.3337
LeftForeArm  39.4428 -26.4494 -3.58636
LeftHand  -0.244104 0.0205437 5.32207
RightShoulder  4.52602 7.92657 33.663
RightArm  -1.15177 -6.62936 17.6679
RightForeArm  7.92406 20.2292 4.67451
RightHand  -1.22239 3.6792 -15.827
LeftUpLeg  4.12502 6.51185 -0.839608
LeftLeg  10.4384 24.8962 -2.17348
LeftFoot  -14.1098 0.043687 -1.69746
LeftToes  -7.82198e-011 2.46994e-011 -7.94165e-012
339
root  -73.3378 40.7923 -5.20406 2.12109 83.1753 3.15942
RightUpLeg  -23.1717 -19.6214 1.02184
RightLeg  21.4788 -3.67621 -1.91091
RightFoot  0.364194 -0.674891 6.60074
RightToes  -1.33073e-015 0 -3.6325e-017
Spine  12.3 0.537996 -0.406838
Spine1  5.18599 0.617466 -0.790929
HEad  11.0119 2.3305 -0.674404
LeftShoulder1  7.29735 -11.076 -43.554
LeftArm  -21.2319 15.6017 -20.1253
LeftForeArm  37.5087 -20.3308 -2.56224
LeftHand  -0.244104 0.0205437 5.32207
RightShoulder  5.14177 8.54457 36.6894
RightArm  -2.68136 -8.31662 20.3304
RightForeArm  11.2741 16.7452 5.24401
RightHand  -0.97612 2.65439 -14.2465
LeftUpLeg  4.88693 6.27253 -1.09666
LeftLeg  9.7904 24.9032 -2.38912
LeftFoot  -14.422 0.0357434 -1.88675
LeftToes  -7.82198e-011 2.46994e-011 -7.94165e-012
340
root  -72.6905 40.6986 -5.21846 6.7467 83.4231 7.42505
RightUpLeg  -23.0424 -20.4056 1.70556
RightLeg  13.8559 -4.50894 0.0055686
RightFoot  0.356792 -0.640852 6.27354
RightToes  -1.33073e-015 0 -3.6325e-017
Spine  11.9596 0.488016 -1.12542
Spine1  5.68586 0.32898 0.0174312
HEad  10.8841 1.7068 -0.841314
LeftShoulder1  7.84171 -11.5473 -45.417
LeftArm  -18.8253 14.6321 -24.0541
LeftForeArm  36.8958 -14.9089 -2.22567
LeftHand  -0.244104 0.0205437 5.32207
RightShoulder  5.43687 8.75154 38.3106
RightArm  -6.68571 -10.8619 24.5564
RightForeArm  14.8784 13.4332 5.53255
RightHand  -0.758339 1.34541 -13.2024
LeftUpLeg  5.85634 6.0386 -1.66998
LeftLeg  9.06855 24.7309 -2.78832
LeftFoot  -15.0072 0.0173177 -2.25932
LeftToes  -7.82198e-011 2.46994e-011 -7.94165e-012
341
root  -71.9392 40.556 -5.22333 12.8865 83.6888 13.2385
RightUpLeg  -21.698 -12.8947 -1.92014
RightLeg  7.27001 -11.7146 3.61126
RightFoot  0.958771 -0.670685 6.27732
RightToes  -1.33073e-015 0 -3.6325e-017
Spine  11.6125 0.306773 -1.55866
Spine1  5.97854 0.0154766 0.397572
HEad  10.8416 1.25485 -0.95418
LeftShoulder1  8.04605 -11.6183 -46.4084
LeftArm  -19.1662 14.8795 -28.3062
LeftForeArm  36.0375 -11.4004 -2.14419
LeftHand  -0.244104 0.0205437 5.32207
RightShoulder  5.52577 8.73903 39.0457
RightArm  -10.7754 -14.1939 29.5634
RightForeArm  16.9472 10.7982 5.23894
RightHand  -0.642689 0.620855 -12.5145
LeftUpLeg  6.9341 5.83447 -2.32011
LeftLeg  8.61336 24.4446 -3.1274
LeftFoot  -15.9622 -0.0125703 -2.68796
LeftToes  -7.82198e-011 2.46994e-011 -7.94165e-012
342
root  -71.0862 40.3628 -5.23605 17.575 83.9473 17.8946
RightUpLeg  -21.403 -8.84455 -3.49804
RightLeg  3.79688 -13.8763 5.02075
RightFoot  1.61916 -0.725548 6.4754
RightToes  -1.33073e-015 0 -3.6325e-017
Spine  11.6853 -0.00250854 -1.3106
Spine1  5.91571 -0.273171 0.277744
HEad  10.8764 1.0999 -1.21058
LeftShoulder1  8.11614 -11.5119 -47.1597
LeftArm  -19.9814 16.4835 -31.8798
LeftForeArm  33.7966 -10.4051 -1.9925
LeftHand  -0.244104 0.0205437 5.32207
RightShoulder  5.49966 8.61479 39.2806
RightArm  -12.9376 -17.9258 34.3677
RightForeArm  18.228 9.26663 4.9055
RightHand  -0.537016 0.279094 -11.0029
LeftUpLeg  8.26252 5.82452 -2.76506
LeftLeg  8.76019 24.1337 -3.14582
LeftFoot  -17.0922 -0.0317192 -2.68306
LeftToes  -7.82198e-011 2.46994e-011 -7.94165e-012
343
root  -70.1328 40.1351 -5.24425 20.2012 84.33 20.9381
RightUpLeg  -21.3542 -8.57843 -3.20534
RightLeg  4.28538 -12.2829 4.45957
RightFoot  2.06485 -0.750973 6.49415
RightToes  -1.33073e-015 0 -3.6325e-017
Spine  12.0625 -0.344788 -0.650232
Spine1  5.99708 -0.599423 0.205052
HEad  10.8646 1.15988 -1.76255
LeftShoulder1  8.17594 -11.4001 -47.8737
LeftArm  -20.3853 18.7507 -34.2132
LeftForeArm  32.5447 -10.9426 -2.02942
LeftHand  -0.244104 0.0205437 5.32207
RightShoulder  5.39651 8.41719 39.1722
RightArm  -12.6665 -21.4936 38.2987
RightForeArm  20.3814 8.93918 5.03829
RightHand  -0.322834 -1.00955 -8.47283
LeftUpLeg  10.1227 5.98415 -2.84312
LeftLeg  9.25548 23.5607 -2.96099
LeftFoot  -18.3803 -0.060502 -2.76066
LeftToes  -7.82198e-011 2.46994e-011 -7.94165e-012
344
root  -69.0873 39.9167 -5.22351 21.121 85.1017 22.3225
RightUpLeg  -21.2051 -9.95899 -2.03365
RightLeg  6.80078 -9.99361 3.52718
RightFoot  3.1504 -0.570408 4.69609
RightToes  -1.33073e-015 0 -3.6325e-017
Spine  12.0907 -0.689706 0.21761
Spine1  6.58236 -1.06223 0.700434
HEad  10.7572 1.20497 -2.37148
LeftShoulder1  8.2372 -11.3589 -48.3708
LeftArm  -20.0084 20.8722 -35.2981
LeftForeArm  33.3599 -11.292 -2.17891
LeftHand  -0.244104 0.0205437 5.32207
RightShoulder  5.27242 8.21772 38.8969
RightArm  -10.6943 -24.6921 40.9665
RightForeArm  22.7156 9.58975 5.51147
RightHand  -0.213849 -2.28879 -7.71332
LeftUpLeg  12.3485 6.14934 -2.40666
LeftLeg  9.41877 22.3327 -2.83662
LeftFoot  -19.7631 -0.163755 -3.82164
LeftToes  -7.82198e-011 2.46994e-011 -7.94165e-012
345
root  -67.9721 39.7534 -5.17557 15.2413 86.2308 16.453
RightUpLeg  -21.686 -12.2453 0.187834
RightLeg  10.2064 -7.414 2.412
RightFoot  4.95175 0.0032621 0.236432
RightToes  -1.33073e-015 0 -3.6325e-017
Spine  11.5583 -1.0534 1.82389
Spine1  7.21766 -1.5427 1.45603
HEad  10.5907 1.0101 -2.72676
LeftShoulder1  8.27621 -11.3875 -48.5079
LeftArm  -19.0936 22.6642 -35.3247
LeftForeArm  34.6432 -10.6625 -2.3458
LeftHand  -0.244104 0.0205437 5.32207
RightShoulder  5.16559 8.06587 38.5779
RightArm  -8.41184 -27.6275 42.2918
RightForeArm  23.2394 10.6271 5.92773
RightHand  -0.292273 -2.11019 -10.0575
LeftUpLeg  14.3098 6.61285 -1.23009
LeftLeg  9.30701 20.5277 -2.52793
LeftFoot  -20.6822 -0.300781 -5.20688
LeftToes  -7.82198e-011 2.46994e-011 -7.94165e-012
346
root  -66.8026 39.6196 -5.11195 -4.5838 86.9589 -3.58459
RightUpLeg  -23.0219 -14.805 3.38755
RightLeg  14.6452 -4.17745 0.631159
RightFoot  5.58836 0.690799 -4.4296
RightToes  -1.33073e-015 0 -3.6325e-017
Spine  11.1471 -1.37349 4.27884
Spine1  7.29405 -1.80252 1.83991
HEad  10.4695 0.74878 -3.07603
LeftShoulder1  8.28778 -11.4461 -48.3849
LeftArm  -18.2413 24.2766 -34.5769
LeftForeArm  34.2957 -9.61146 -2.46623
LeftHand  -0.244104 0.0205437 5.32207
RightShoulder  5.06991 7.94633 38.2232
RightArm  -7.04812 -29.979 42.4218
RightForeArm  22.9696 11.2815 6.10577
RightHand  -0.369573 -1.67463 -11.4972
LeftUpLeg  15.5999 8.27675 0.761392
LeftLeg  10.3948 18.0907 -1.39964
LeftFoot  -20.9403 -0.387996 -6.10342
LeftToes  -7.82198e-011 2.46994e-011 -7.94165e-012
347
root  -65.608 39.4931 -5.02254 -27.9153 86.7483 -26.7341
RightUpLeg  -23.714 -15.5585 5.62493
RightLeg  19.3106 -2.61192 -1.2394
RightFoot  3.758 0.844644 -6.13854
RightToes  -1.33073e-015 0 -3.6325e-017
Spine  11.523 -1.65439 6.51285
Spine1  7.02577 -1.94 2.08221
HEad  10.1386 0.923815 -3.59151
LeftShoulder1  8.29274 -11.5125 -48.1988
LeftArm  -17.8708 25.5902 -33.3733
LeftForeArm  32.262 -8.97112 -2.46309
LeftHand  -0.244104 0.0205437 5.32207
RightShoulder  4.99906 7.8711 37.9059
RightArm  -7.02438 -30.8918 41.5339
RightForeArm  24.1722 11.0761 6.07769
RightHand  -0.312734 -1.85283 -9.75019
LeftUpLeg  16.4975 12.312 3.6107
LeftLeg  13.544 13.2179 0.555069
LeftFoot  -20.7987 -0.559698 -8.23459
LeftToes  -7.82198e-011 2.46994e-011 -7.94165e-012
348
root  -64.4497 39.4209 -4.8914 -42.471 86.5267 -40.7482
RightUpLeg  -22.7357 -14.1765 5.59168
RightLeg  22.8158 -4.25104 -2.19209
RightFoot  0.593128 0.575441 -5.44436
RightToes  -1.33073e-015 0 -3.6325e-017
Spine  12.4146 -2.04912 7.65303
Spine1  7.00721 -2.3087 2.95485
HEad  9.57119 1.64121 -4.08518
LeftShoulder1  8.31756 -11.6185 -48.003
LeftArm  -17.7283 26.2459 -31.8849
LeftForeArm  30.2426 -8.93303 -2.4301
LeftHand  -0.244104 0.0205437 5.32207
RightShoulder  4.98113 7.88349 37.7082
RightArm  -8.15521 -29.968 40.0029
RightForeArm  27.0768 10.1304 5.78287
RightHand  -0.106493 -3.38769 -5.42724
LeftUpLeg  16.5966 16.4604 6.46529
LeftLeg  18.5607 7.07038 2.64748
LeftFoot  -19.548 -0.832438 -13.3917
LeftToes  -7.82198e-011 2.46994e-011 -7.94165e-012
349
root  -63.3721 39.4169 -4.73728 -59.7252 86.766 -57.8183
RightUpLeg  -21.5443 -15.2005 5.70217
RightLeg  24.8428 -4.46125 -2.47639
RightFoot  -2.20089 0.389701 -5.0842
RightToes  -1.33073e-015 0 -3.6325e-017
Spine  13.1289 -2.55466 8.32436
Spine1  7.08968 -2.84529 4.28092
HEad  9.28498 2.16986 -4.40069
LeftShoulder1  8.35212 -11.7972 -47.6364
LeftArm  -17.2156 26.0575 -30.1801
LeftForeArm  29.6316 -9.35579 -2.55519
LeftHand  -0.244104 0.0205437 5.32207
RightShoulder  4.97121 7.9311 37.4486
RightArm  -9.90948 -27.8893 38.4645
RightForeArm  27.768 9.0999 5.29617
RightHand  -0.0565555 -4.2769 -3.99741
LeftUpLeg  13.6053 13.8884 6.97177
LeftLeg  26.7321 7.50492 4.53671
LeftFoot  -15.1098 -0.504073 -18.173
LeftToes  -7.82198e-011 2.46994e-011 -7.94165e-012
